PathFileType	4	(X/Y/Z)	C:/Users/opensim2020/Desktop/walking_exp_matlab/subject06_walking15_straight_01.trc																																																																																																																																											
DataRate	CameraRate	NumFrames	NumMarkers	Units	OrigDataRate	OrigDataStartFrame	OrigNumFrames																																																																																																																																							
100	100	4	47	mm	100	776	232																																																																																																																																							
Frame#	Time	LFHD			RFHD			LBHD			RBHD			C7			T10			CLAV			STRN			RBAK			LSHO			LUPA			LELB			LFRM			LWRA			LWRB			LFIN			RSHO			RUPA			RELB			RFRM			RWRA			RWRB			RFIN			LASI			RASI			LPSI			RPSI			LTHI			LKNE			LTIB			LANK			LHEE			LTOE			RTHI			RKNE			RTIB			RANK			RHEE			RTOE			*39			*40			*41			*42			*43			*44			*45			*46		
		X1	Y1	Z1	X2	Y2	Z2	X3	Y3	Z3	X4	Y4	Z4	X5	Y5	Z5	X6	Y6	Z6	X7	Y7	Z7	X8	Y8	Z8	X9	Y9	Z9	X10	Y10	Z10	X11	Y11	Z11	X12	Y12	Z12	X13	Y13	Z13	X14	Y14	Z14	X15	Y15	Z15	X16	Y16	Z16	X17	Y17	Z17	X18	Y18	Z18	X19	Y19	Z19	X20	Y20	Z20	X21	Y21	Z21	X22	Y22	Z22	X23	Y23	Z23	X24	Y24	Z24	X25	Y25	Z25	X26	Y26	Z26	X27	Y27	Z27	X28	Y28	Z28	X29	Y29	Z29	X30	Y30	Z30	X31	Y31	Z31	X32	Y32	Z32	X33	Y33	Z33	X34	Y34	Z34	X35	Y35	Z35	X36	Y36	Z36	X37	Y37	Z37	X38	Y38	Z38	X39	Y39	Z39	X40	Y40	Z40	X41	Y41	Z41	X42	Y42	Z42	X43	Y43	Z43	X44	Y44	Z44	X45	Y45	Z45	X46	Y46	Z46	X47	Y47	Z47
																																																																																																																																														
1	0	-1099.16223	1657.5957	1331.69812	-1091.31604	1654.98828	1463.26855	-1234.86438	1609.66699	1342.07581	-1225.3811	1611.86646	1471.17517	-1239.23462	1457.87097	1399.55298	-1301.32825	1133.31982	1407.76819	-1133.88586	1372.36292	1403.25366	-1110.77417	1194.80139	1398.66113	-1328.27258	1296.36658	1476.17249	-1180.67188	1408.19507	1240.67822	-1167.09302	1207.71228	1163.74548	-1156.61121	1095.49158	1147.85352	-1091.74084	959.49414	1130.65601	-1001.19098	870.68103	1178.10889	-1056.6344	845.08722	1140.35559	-991.82526	782.31323	1141.90491	-1181.5979	1409.73328	1562.93811	-1253.19751	1222.10217	1650.24731	-1266.15955	1101.43921	1665.9696	-1276.67053	982.56073	1689.34375	-1242.75891	832.79199	1671.94934	-1300.92114	846.18378	1703.59155	-1280.32031	764.34546	1712.48425	-1129.95569	961.75232	1306.8136	-1137.24304	973.51691	1526.94971	-1286.50513	997.64648	1332.03784	-1286.91077	998.75226	1499.9115	-1226.25964	651.95129	1256.93799	-1249.04871	489.3642	1281.53564	-1308.27673	238.55472	1300.38916	-1321.99707	68.9179	1352.83655	-1361.14795	56.48669	1399.46814	-1177.59192	39.75882	1348.43628	-1114.85107	651.26721	1590.44568	-1066.01404	535.79761	1567.14624	-1162.77502	292.96252	1566.20496	-1224.60486	117.41462	1526.0155	-1262.71399	97.35898	1476.37964	-1090.09875	54.5369	1553.3313	-1193.93933	1704.50635	1393.37134	NaN	NaN	NaN	NaN	NaN	NaN	NaN	NaN	NaN	NaN	NaN	NaN	NaN	NaN	NaN	NaN	NaN	NaN	NaN	NaN	NaN
2	0.01	-1092.70239	1657.4884	1332.42517	-1085.07922	1654.50891	1464.0813	-1228.37341	1609.43469	1342.48535	-1219.13574	1611.29382	1471.5885	-1232.74207	1457.39282	1399.56433	-1294.68823	1132.8938	1407.5575	-1127.40576	1371.97986	1403.27673	-1104.14844	1194.46362	1398.31519	-1321.78516	1295.69214	1475.71692	-1174.1217	1407.89221	1240.72571	-1159.75732	1207.71521	1163.58691	-1148.6897	1095.53052	1147.74963	-1081.56409	960.74298	1130.97034	-988.86914	874.3208	1179.02466	-1043.70825	847.23895	1141.60657	-977.46533	785.99353	1143.52905	-1175.48193	1409.05029	1563.00439	-1247.46985	1221.22473	1649.40295	-1260.66638	1100.64282	1664.95972	-1272.3186	981.84576	1688.53137	-1239.84875	831.77197	1672.36475	-1298.39221	845.83203	1702.86169	-1278.91736	764.08252	1712.54688	-1123.83447	961.10297	1306.22375	-1130.15088	973.06561	1526.08081	-1280.23108	997.1629	1332.10742	-1279.9281	998.47083	1499.99585	-1221.46313	651.38806	1256.73035	-1244.87988	488.90308	1281.79248	-1306.45679	238.63974	1300.68982	-1321.69702	69.00747	1353.04358	-1360.78528	56.50023	1399.47595	-1177.60022	39.67546	1348.3623	-1105.77368	651.79022	1589.85474	-1056.80176	536.52783	1566.01318	-1144.65576	289.71228	1566.62244	-1197.45813	110.92388	1527.34644	-1234.55298	89.33174	1477.68433	-1060.40527	53.25693	1554.99744	-1187.5802	1704.15137	1394.10205	NaN	NaN	NaN	NaN	NaN	NaN	NaN	NaN	NaN	NaN	NaN	NaN	NaN	NaN	NaN	NaN	NaN	NaN	NaN	NaN	NaN
3	0.02	-1086.02661	1657.29993	1333.28564	-1078.63428	1653.93066	1464.823	-1221.72888	1609.12549	1342.90918	-1212.79395	1610.65601	1472.00305	-1226.15393	1456.86365	1399.62732	-1287.87708	1132.35864	1407.4104	-1120.4458	1371.64001	1403.36536	-1097.35535	1194.02588	1397.98352	-1315.19104	1294.99097	1475.35803	-1167.53101	1407.65344	1240.75354	-1152.58691	1207.69385	1163.53723	-1140.99695	1095.47192	1147.52832	-1070.93347	961.92529	1131.77905	-976.65216	878.07867	1180.13745	-1030.89111	849.34589	1143.09009	-963.17267	789.7583	1145.29333	-1169.19336	1408.30005	1563.09082	-1241.63086	1220.29919	1648.65381	-1255.14185	1099.77991	1664.0896	-1268.00549	981.16058	1687.81494	-1236.89331	830.71198	1672.78223	-1295.65979	845.55768	1702.26038	-1277.16943	763.45026	1712.55212	-1117.54944	960.42621	1305.70679	-1122.99084	972.85809	1525.64697	-1273.82239	996.65662	1332.25037	-1272.79407	998.13739	1500.07446	-1216.49695	650.79059	1257.08936	-1240.61963	488.405	1282.06262	-1304.47461	238.60172	1300.94324	-1321.42017	69.14808	1353.28503	-1360.57178	56.64567	1399.69775	-1177.44177	39.79718	1348.49353	-1097.24463	652.13165	1589.63477	-1048.026	536.96234	1565.21765	-1126.40186	286.40674	1567.28235	-1169.96143	104.97038	1528.69104	-1206.12524	82.23139	1478.93518	-1030.53613	51.9109	1556.08447	-1181.10315	1703.74097	1394.86133	NaN	NaN	NaN	NaN	NaN	NaN	NaN	NaN	NaN	NaN	NaN	NaN	NaN	NaN	NaN	NaN	NaN	NaN	NaN	NaN	NaN
4	0.03	-1079.21423	1656.96533	1334.16003	-1072.35291	1653.24817	1465.72363	-1215.02173	1608.78711	1343.34802	-1206.36987	1609.93958	1472.46594	-1219.44958	1456.28931	1399.7218	-1281.026	1131.77527	1407.28748	-1113.77466	1371.1095	1403.47034	-1090.47485	1193.58337	1397.69458	-1308.45557	1294.18616	1475.04712	-1160.86157	1407.40198	1240.83179	-1145.427	1207.60889	1163.4397	-1133.30945	1095.43115	1147.52893	-1061.04126	963.11407	1132.28076	-964.75983	881.76093	1181.23755	-1018.34296	851.45636	1144.54736	-949.45306	793.5462	1146.98242	-1162.77222	1407.45813	1563.20117	-1235.71423	1219.32532	1648.02637	-1249.5553	1098.94727	1663.38269	-1263.68127	980.5235	1687.10071	-1233.84534	829.64191	1672.97021	-1292.74048	845.11731	1701.64624	-1275.35876	762.96625	1712.53479	-1111.20618	959.70197	1305.1936	-1115.48987	972.39868	1525.13281	-1267.1842	995.93842	1332.34753	-1265.51257	997.71295	1500.20703	-1211.46436	650.11292	1256.89429	-1236.27625	487.87796	1282.3656	-1302.38794	238.61023	1301.14856	-1321.03333	69.23383	1353.44971	-1360.33215	56.82447	1399.84229	-1177.36121	39.7584	1348.52441	-1089.08594	652.20135	1589.62537	-1039.84692	537.08771	1564.89465	-1108.00256	283.13055	1568.04431	-1142.26331	99.60625	1529.86304	-1177.55298	76.06286	1480.11609	-1000.64368	50.39659	1556.35876	-1174.52551	1703.27124	1395.70178	NaN	NaN	NaN	NaN	NaN	NaN	NaN	NaN	NaN	NaN	NaN	NaN	NaN	NaN	NaN	NaN	NaN	NaN	NaN	NaN	NaN
